<?xml version="1.0" encoding="UTF-8" standalone="no"?>
<!-- Created with Inkscape (http://www.inkscape.org/) -->

<svg
   width="127.10915mm"
   height="20.961044mm"
   viewBox="-.5 -.5 129 22"
   version="1.1"
   id="svg5798"
   inkscape:version="1.1.1 (3bf5ae0d25, 2021-09-20)"
   sodipodi:docname="Tigerbotics Text.svg"
   inkscape:export-filename="\\staff.gr.grisd.net\hs-staff$\stovri\Desktop\Title_and_Slogan2.png"
   inkscape:export-xdpi="302.73001"
   inkscape:export-ydpi="302.73001"
   xmlns:inkscape="http://www.inkscape.org/namespaces/inkscape"
   xmlns:sodipodi="http://sodipodi.sourceforge.net/DTD/sodipodi-0.dtd"
   xmlns="http://www.w3.org/2000/svg"
   xmlns:svg="http://www.w3.org/2000/svg">
  <sodipodi:namedview
     id="namedview5800"
     pagecolor="#ffffff"
     bordercolor="#666666"
     borderopacity="1.0"
     inkscape:pageshadow="2"
     inkscape:pageopacity="0.0"
     inkscape:pagecheckerboard="0"
     inkscape:document-units="mm"
     showgrid="false"
     inkscape:zoom="0.37059483"
     inkscape:cx="509.99093"
     inkscape:cy="-90.395218"
     inkscape:window-width="1920"
     inkscape:window-height="1017"
     inkscape:window-x="1912"
     inkscape:window-y="-8"
     inkscape:window-maximized="1"
     inkscape:current-layer="layer1"
     fit-margin-top="0"
     fit-margin-left="0"
     fit-margin-right="0"
     fit-margin-bottom="0" />
  <defs
     id="defs5795" />
  <g
     inkscape:label="Layer 1"
     inkscape:groupmode="layer"
     id="layer1"
     transform="translate(-41.539203)">
    <path
       id="path840"
       style="font-size:6.20874px;line-height:1.25;font-family:Orbitron;-inkscape-font-specification:'Orbitron, @wght=700';font-variation-settings:'wght' 700;text-align:center;text-anchor:middle;fill:#ff512e;stroke:#000000;stroke-width:0.5;stroke-linecap:round;stroke-linejoin:round;paint-order:markers stroke fill"
       d="m 61.344888,14.548466 v 3.93671 c 0,0.157543 0.03957,0.300393 0.11834,0.428915 0.07877,0.128522 0.182052,0.232321 0.310573,0.311092 0.128521,0.07877 0.271889,0.118339 0.429432,0.118339 h 0.727604 v -0.814937 h -0.690396 c -0.02073,0 -0.03923,-0.0062 -0.05581,-0.0186 -0.01244,-0.01659 -0.01861,-0.03508 -0.01861,-0.05581 V 14.54847 Z m -1.508953,0.0067 v 0.820621 h 0.814422 v -0.820621 z m 6.348449,0 v 1.181323 h -1.99626 c -0.161687,0 -0.306594,0.03957 -0.435115,0.118339 -0.128522,0.07877 -0.23232,0.182054 -0.311092,0.310575 -0.07463,0.128522 -0.11162,0.271889 -0.11162,0.429431 v 1.890324 c 0,0.157543 0.03699,0.300393 0.11162,0.428915 0.07877,0.128522 0.18257,0.232321 0.311092,0.311092 0.128521,0.07877 0.273428,0.118339 0.435115,0.118339 h 2.811198 v -4.788338 z m 1.473814,0 v 0.820621 h 0.814938 v -0.820621 z m 21.325313,0.07441 v 3.855578 c 0,0.157543 0.03957,0.300393 0.118338,0.428915 0.07877,0.128522 0.182054,0.232321 0.310575,0.311092 0.128522,0.07877 0.271889,0.118339 0.429432,0.118339 h 1.361673 v -0.814937 h -1.330666 c -0.02073,0 -0.03922,-0.0062 -0.05581,-0.0186 -0.01244,-0.01659 -0.01861,-0.03508 -0.01861,-0.05581 V 16.55091 h 1.405083 V 15.736489 H 89.798443 V 14.62958 Z M 50.383282,14.865737 V 19.3435 h 3.607015 c 0.157543,0 0.30245,-0.03957 0.435118,-0.118339 0.132667,-0.07877 0.238521,-0.18257 0.317291,-0.311092 0.07877,-0.132668 0.117824,-0.277573 0.117824,-0.435116 V 17.51521 c 0,-0.103646 -0.02261,-0.207446 -0.06821,-0.311092 -0.04146,-0.103647 -0.09747,-0.203335 -0.167947,-0.29869 0.02073,-0.0456 0.03512,-0.09287 0.04341,-0.142627 0.0083,-0.04975 0.0124,-0.101653 0.0124,-0.155546 v -0.876949 c 0,-0.157543 -0.03905,-0.300393 -0.117824,-0.428915 -0.07877,-0.132667 -0.184624,-0.238522 -0.317294,-0.317293 -0.128518,-0.07877 -0.27137,-0.118339 -0.428913,-0.118339 z m 29.277284,0 V 19.3435 h 3.607014 c 0.157543,0 0.302966,-0.03957 0.435634,-0.118339 0.132667,-0.07877 0.238003,-0.18257 0.316775,-0.311092 0.07877,-0.132668 0.11834,-0.277573 0.11834,-0.435116 V 17.51521 c 0,-0.103646 -0.02261,-0.207446 -0.06821,-0.311092 -0.04146,-0.103647 -0.09747,-0.203335 -0.167947,-0.29869 0.02073,-0.0456 0.03512,-0.09287 0.04341,-0.142627 0.0083,-0.04975 0.0124,-0.101653 0.0124,-0.155546 v -0.876949 c 0,-0.157543 -0.03957,-0.300393 -0.11834,-0.428915 -0.07877,-0.132667 -0.18411,-0.238522 -0.316775,-0.317293 -0.128521,-0.07877 -0.271891,-0.118339 -0.429432,-0.118339 z m -28.38173,0.82734 h 2.500106 c 0.02072,0 0.03717,0.0082 0.04961,0.0248 0.01244,0.01244 0.0186,0.02888 0.0186,0.04961 v 0.808736 c 0,0.02073 -0.0062,0.03923 -0.0186,0.05581 -0.01244,0.01244 -0.02889,0.0186 -0.04961,0.0186 h -2.500106 c -0.02073,0 -0.03922,-0.0062 -0.05581,-0.0186 -0.01244,-0.01659 -0.01912,-0.03508 -0.01912,-0.05581 v -0.808736 c 0,-0.02073 0.0067,-0.03717 0.01912,-0.04961 0.01659,-0.01658 0.03508,-0.0248 0.05581,-0.0248 z m 29.277281,0 h 2.500106 c 0.02073,0 0.03717,0.0082 0.04961,0.0248 0.01244,0.01244 0.01861,0.02888 0.01861,0.04961 v 0.808736 c 0,0.02073 -0.0062,0.03923 -0.01861,0.05581 -0.01244,0.01244 -0.02888,0.0186 -0.04961,0.0186 h -2.500106 c -0.02073,0 -0.03923,-0.0062 -0.05581,-0.0186 -0.01244,-0.01659 -0.01861,-0.03508 -0.01861,-0.05581 v -0.808736 c 0,-0.02073 0.0062,-0.03717 0.01861,-0.04961 0.01659,-0.01658 0.03508,-0.0248 0.05581,-0.0248 z m -25.036198,0.04341 v 2.748669 c 0,0.157543 0.03751,0.300393 0.112138,0.428915 0.07877,0.128522 0.182055,0.232321 0.310576,0.311092 0.132668,0.07877 0.278091,0.118339 0.435631,0.118339 h 1.946135 c 0.16169,0 0.307113,-0.03957 0.435634,-0.118339 0.128521,-0.07877 0.230264,-0.18257 0.30489,-0.311092 0.07877,-0.128522 0.117822,-0.271372 0.117822,-0.428915 v -2.748669 h -0.81442 v 2.717664 c 0,0.02073 -0.0082,0.03923 -0.0248,0.05581 -0.01244,0.01244 -0.0294,0.0186 -0.05013,0.0186 h -1.884124 c -0.02072,0 -0.03922,-0.0062 -0.05581,-0.0186 -0.01244,-0.01659 -0.01861,-0.03508 -0.01861,-0.05581 v -2.717664 z m 4.316016,0 v 3.607015 h 0.814422 v -3.607015 z m 7.822263,0 v 3.607015 h 0.814938 v -3.607015 z m 1.535821,0 v 3.607015 h 0.814422 v -2.717664 c 0,-0.02073 0.0062,-0.03717 0.0186,-0.04961 0.01659,-0.01658 0.0356,-0.02532 0.05633,-0.02532 h 1.884125 c 0.02072,-1e-6 0.03717,0.0087 0.04961,0.02532 0.01658,0.01244 0.02481,0.02888 0.02481,0.04961 v 2.717664 h 0.814938 v -2.74867 c 0,-0.157542 -0.03957,-0.300909 -0.118341,-0.429431 -0.07462,-0.128521 -0.178424,-0.231804 -0.311091,-0.310575 -0.128522,-0.07877 -0.271373,-0.118339 -0.428916,-0.118339 z m 5.062742,0 c -0.153398,0 -0.296762,0.03957 -0.429432,0.118339 -0.128522,0.07877 -0.231804,0.182054 -0.310574,0.310575 -0.07877,0.128522 -0.11834,0.271889 -0.11834,0.429431 v 1.890324 c 0,0.157543 0.03957,0.300393 0.11834,0.428915 0.07877,0.128522 0.182052,0.232321 0.310574,0.311092 0.13267,0.07877 0.276034,0.118339 0.429432,0.118339 h 1.99006 v 0.52865 c 0,0.02073 -0.0082,0.03717 -0.02481,0.04961 -0.01244,0.01658 -0.0294,0.02481 -0.05013,0.02481 H 74.00148 v 0.821138 h 2.207617 c 0.157541,0 0.300908,-0.03957 0.42943,-0.118339 0.13267,-0.07463 0.236468,-0.176369 0.311091,-0.304891 0.07463,-0.128522 0.111623,-0.273427 0.111623,-0.435115 v -3.314527 c 0,-0.157542 -0.03905,-0.300909 -0.117822,-0.429431 -0.07463,-0.128521 -0.176368,-0.231804 -0.304892,-0.310575 -0.128522,-0.07877 -0.271889,-0.118339 -0.42943,-0.118339 z m 11.386386,0 c -0.157544,0 -0.300392,0.03957 -0.428916,0.118339 -0.128522,0.07877 -0.232321,0.182054 -0.311092,0.310575 -0.07877,0.128522 -0.118338,0.271889 -0.118338,0.429431 v 1.890324 c 0,0.157543 0.03957,0.300393 0.118338,0.428915 0.07877,0.128522 0.18257,0.232321 0.311092,0.311092 0.128524,0.07877 0.271372,0.118339 0.428916,0.118339 h 1.94665 c 0.16169,0 0.306594,-0.03957 0.435115,-0.118339 0.128522,-0.07877 0.230267,-0.18257 0.30489,-0.311092 0.07877,-0.128522 0.118341,-0.271372 0.118341,-0.428915 v -1.890324 c 0,-0.157542 -0.03957,-0.300909 -0.118341,-0.429431 -0.07462,-0.128521 -0.178424,-0.231804 -0.311091,-0.310575 -0.128522,-0.07877 -0.27137,-0.118339 -0.428914,-0.118339 z m 6.933943,0 c -0.157544,0 -0.300392,0.03957 -0.428916,0.118339 -0.128522,0.07877 -0.23232,0.182054 -0.311092,0.310575 -0.07877,0.128522 -0.117822,0.271889 -0.117822,0.429431 v 0.497128 c 0,0.157542 0.03905,0.300906 0.117822,0.429431 0.07877,0.128522 0.18257,0.231804 0.311092,0.310575 0.128524,0.07877 0.271372,0.118339 0.428916,0.118339 h 1.915644 c 0.02073,0 0.03717,0.0082 0.04961,0.02481 0.01659,0.01244 0.02481,0.0294 0.02481,0.05013 v 0.428915 c 0,0.02073 -0.0082,0.03923 -0.02481,0.05581 -0.01244,0.01244 -0.02888,0.0186 -0.04961,0.0186 h -1.884122 c -0.02073,0 -0.03974,-0.0062 -0.05633,-0.0186 -0.01244,-0.01659 -0.0186,-0.03508 -0.0186,-0.05581 V 18.348234 H 91.71926 v 0.136942 c 0,0.157543 0.03905,0.300393 0.117822,0.428915 0.07877,0.128522 0.18257,0.232321 0.311092,0.311092 0.128524,0.07877 0.271372,0.118339 0.428916,0.118339 h 1.946651 c 0.161689,0 0.307109,-0.03957 0.435631,-0.118339 0.128524,-0.07877 0.231804,-0.18257 0.310576,-0.311092 0.07877,-0.128522 0.11834,-0.271372 0.11834,-0.428915 v -0.497644 c 0,-0.157542 -0.03957,-0.300392 -0.11834,-0.428914 -0.07877,-0.128521 -0.182052,-0.232321 -0.310576,-0.311092 -0.128522,-0.07877 -0.273942,-0.117822 -0.435631,-0.117822 h -1.915129 c -0.02073,0 -0.03974,-0.0062 -0.05633,-0.0186 -0.01244,-0.01659 -0.0186,-0.0356 -0.0186,-0.05633 v -0.428915 c 0,-0.02073 0.0062,-0.03717 0.0186,-0.04961 0.01659,-0.01658 0.0356,-0.02532 0.05633,-0.02532 h 1.884122 c 0.02073,-1e-6 0.03717,0.0087 0.04961,0.02532 0.01659,0.01244 0.02481,0.02888 0.02481,0.04961 v 0.10542 h 0.82114 v -0.136426 c 0,-0.157542 -0.03957,-0.300909 -0.11834,-0.429431 -0.07877,-0.128521 -0.182052,-0.231804 -0.310576,-0.310575 -0.128522,-0.07877 -0.273942,-0.118339 -0.435631,-0.118339 z m -28.351242,0.814421 h 1.884125 c 0.02072,0 0.03717,0.0087 0.04961,0.02532 0.01658,0.01244 0.0248,0.02888 0.0248,0.04961 v 1.828313 c 0,0.02073 -0.0082,0.03923 -0.0248,0.05581 -0.01244,0.01244 -0.02889,0.0186 -0.04961,0.0186 h -1.884125 c -0.02073,0 -0.03974,-0.0062 -0.05633,-0.0186 -0.01244,-0.01659 -0.0186,-0.03508 -0.0186,-0.05581 v -1.828313 c 0,-0.02073 0.0062,-0.03717 0.0186,-0.04961 0.01659,-0.01658 0.0356,-0.02532 0.05633,-0.02532 z m 10.061919,0 h 1.884122 c 0.02073,0 0.03769,0.0087 0.05013,0.02532 0.01659,0.01244 0.02481,0.02888 0.02481,0.04961 v 1.828313 c 0,0.02073 -0.0082,0.03923 -0.02481,0.05581 -0.01244,0.01244 -0.0294,0.0186 -0.05013,0.0186 h -1.884122 c -0.02073,0 -0.03923,-0.0062 -0.05581,-0.0186 -0.01244,-0.01659 -0.0186,-0.03508 -0.0186,-0.05581 v -1.828313 c 0,-0.02073 0.0062,-0.03717 0.0186,-0.04961 0.01659,-0.01658 0.03508,-0.02532 0.05581,-0.02532 z m 11.386383,0 h 1.884641 c 0.02073,0 0.03717,0.0087 0.04961,0.02532 0.01658,0.01244 0.02481,0.02888 0.02481,0.04961 v 1.828313 c 0,0.02073 -0.0082,0.03923 -0.02481,0.05581 -0.01244,0.01244 -0.02888,0.0186 -0.04961,0.0186 H 85.67415 c -0.02072,0 -0.03922,-0.0062 -0.05581,-0.0186 -0.01244,-0.01659 -0.01861,-0.03508 -0.01861,-0.05581 v -1.828313 c 0,-0.02073 0.0062,-0.03717 0.01861,-0.04961 0.01659,-0.01658 0.03508,-0.02532 0.05581,-0.02532 z m -34.395314,0.927075 h 2.674255 c 0.02073,0 0.03923,0.0082 0.05581,0.0248 0.01659,0.01244 0.02481,0.02888 0.02481,0.04961 v 0.889351 c 0,0.02073 -0.0082,0.03923 -0.02481,0.05581 -0.01659,0.01244 -0.03508,0.0186 -0.05581,0.0186 h -2.674255 c -0.02073,0 -0.03922,-0.0062 -0.05581,-0.0186 -0.01244,-0.01659 -0.01912,-0.03508 -0.01912,-0.05581 v -0.889351 c 0,-0.02073 0.0067,-0.03717 0.01912,-0.04961 0.01659,-0.01658 0.03508,-0.0248 0.05581,-0.0248 z m 29.277281,0 h 2.674257 c 0.02073,0 0.03923,0.0082 0.05581,0.0248 0.01658,0.01244 0.0248,0.02888 0.0248,0.04961 v 0.889351 c 0,0.02073 -0.0082,0.03923 -0.0248,0.05581 -0.01659,0.01244 -0.03508,0.0186 -0.05581,0.0186 h -2.674257 c -0.02073,0 -0.03923,-0.0062 -0.05581,-0.0186 -0.01244,-0.01659 -0.01861,-0.03508 -0.01861,-0.05581 v -0.889351 c 0,-0.02073 0.0062,-0.03717 0.01861,-0.04961 0.01659,-0.01658 0.03508,-0.0248 0.05581,-0.0248 z m 15.466239,1.100708 v 1.585433 c 0.153398,-0.02902 0.292653,-0.08709 0.417029,-0.17415 0.124378,-0.08292 0.221493,-0.184144 0.291973,-0.304374 0.07048,-0.116084 0.105936,-0.242492 0.105936,-0.379305 v -0.727604 z"
       inkscape:export-filename="\\staff.gr.grisd.net\hs-staff$\stovri\Desktop\Tigerbotics_Title_and_Slogan.png"
       inkscape:export-xdpi="302.73001"
       inkscape:export-ydpi="302.73001" />
    <path
       id="path866"
       style="font-size:6.21879px;line-height:1.25;font-family:Orbitron;-inkscape-font-specification:'Orbitron, @wght=700';font-variation-settings:'wght' 700;text-align:center;text-anchor:middle;fill:#ffffff;stroke:#000000;stroke-width:0.5;stroke-linecap:round;stroke-linejoin:round;paint-order:markers stroke fill"
       d="m 112.08893,14.555184 v 0.820621 h 0.81442 v -0.820621 z m 17.48524,0 v 0.820621 h 0.81494 v -0.820621 z m 20.64732,0.07441 v 3.855578 c 0,0.157543 0.0396,0.300393 0.11833,0.428915 0.0788,0.128522 0.18206,0.232321 0.31058,0.311092 0.12852,0.07877 0.27189,0.118339 0.42943,0.118339 h 1.36167 v -0.814937 h -1.33066 c -0.0207,0 -0.0392,-0.0062 -0.0558,-0.0186 -0.0125,-0.01659 -0.0191,-0.03508 -0.0191,-0.05581 v -1.903243 h 1.40559 v -0.814421 h -1.40559 v -1.106909 z m -51.391698,0.236161 v 4.477763 h 4.122748 v -0.82734 h -3.295925 v -0.994771 h 2.649445 V 16.68787 h -2.649445 v -0.994771 h 3.295925 v -0.82734 z m 42.740538,0 v 4.477763 h 0.82734 v -1.822111 h 2.64894 V 16.68787 h -2.64894 v -0.994771 h 3.29593 v -0.82734 z m -38.00181,0.870748 v 3.607015 h 0.81442 v -2.717664 c 0,-0.02073 0.006,-0.03717 0.0186,-0.04961 0.0166,-0.01658 0.0351,-0.02532 0.0558,-0.02532 h 1.88465 c 0.0207,-10e-7 0.0371,0.0087 0.0496,0.02532 0.0166,0.01244 0.0248,0.02888 0.0248,0.04961 v 2.717664 h 0.81494 v -2.74867 c 0,-0.157542 -0.0396,-0.300909 -0.11834,-0.429431 -0.0746,-0.128521 -0.17843,-0.231804 -0.31109,-0.310575 -0.12853,-0.07877 -0.27137,-0.118339 -0.42892,-0.118339 z m 5.06274,0 c -0.1534,0 -0.29676,0.03957 -0.42943,0.118339 -0.12852,0.07877 -0.2318,0.182054 -0.31058,0.310575 -0.0788,0.128522 -0.11834,0.271889 -0.11834,0.429431 v 1.890324 c 0,0.157543 0.0396,0.300393 0.11834,0.428915 0.0788,0.128522 0.18206,0.232321 0.31058,0.311092 0.13267,0.07877 0.27603,0.118339 0.42943,0.118339 h 1.99006 v 0.52865 c 0,0.02073 -0.009,0.03717 -0.0253,0.04961 -0.0124,0.01658 -0.0289,0.02481 -0.0496,0.02481 h -2.17041 v 0.821138 h 2.20762 c 0.15753,0 0.30091,-0.03957 0.42943,-0.118339 0.13267,-0.07463 0.23595,-0.176369 0.31057,-0.304891 0.0746,-0.128522 0.11214,-0.273427 0.11214,-0.435115 v -3.314527 c 0,-0.157542 -0.0396,-0.300909 -0.11834,-0.429431 -0.0746,-0.128521 -0.17585,-0.231804 -0.30437,-0.310575 -0.12852,-0.07877 -0.2719,-0.118339 -0.42943,-0.118339 z m 3.45767,0 v 3.607015 h 0.81442 v -3.607015 z m 1.53531,0 v 3.607015 h 0.81442 v -2.717664 c 0,-0.02073 0.006,-0.03717 0.0186,-0.04961 0.0166,-0.01658 0.0356,-0.02532 0.0563,-0.02532 h 1.88412 c 0.0207,-10e-7 0.0371,0.0087 0.0496,0.02532 0.0166,0.01244 0.0248,0.02888 0.0248,0.04961 v 2.717664 h 0.81493 v -2.74867 c 0,-0.157542 -0.0396,-0.300909 -0.11834,-0.429431 -0.0746,-0.128521 -0.1779,-0.231804 -0.31057,-0.310575 -0.12853,-0.07877 -0.27189,-0.118339 -0.42943,-0.118339 z m 5.03897,0 c -0.15754,0 -0.3004,0.03957 -0.42892,0.118339 -0.12852,0.07877 -0.23232,0.182054 -0.31109,0.310575 -0.0788,0.128522 -0.11782,0.271889 -0.11782,0.429431 v 1.890324 c 0,0.157543 0.0391,0.300393 0.11782,0.428915 0.0788,0.128522 0.18257,0.232321 0.31109,0.311092 0.12852,0.07877 0.27138,0.118339 0.42892,0.118339 h 2.80499 v -0.814937 h -2.77347 c -0.0207,0 -0.0397,-0.0062 -0.0563,-0.0186 -0.0125,-0.01659 -0.0186,-0.03508 -0.0186,-0.05581 v -0.503846 h 2.8484 v -1.355473 c 0,-0.157542 -0.0396,-0.300909 -0.11834,-0.429431 -0.0746,-0.128521 -0.17842,-0.231804 -0.31109,-0.310575 -0.12852,-0.07877 -0.27137,-0.118339 -0.42891,-0.118339 z m 4.16718,0 c -0.15754,0 -0.30039,0.03957 -0.42891,0.118339 -0.12853,0.07877 -0.23233,0.182054 -0.31109,0.310575 -0.0788,0.128522 -0.11783,0.271889 -0.11783,0.429431 v 1.890324 c 0,0.157543 0.0391,0.300393 0.11783,0.428915 0.0788,0.128522 0.18256,0.232321 0.31109,0.311092 0.12852,0.07877 0.27137,0.118339 0.42891,0.118339 h 5.2e-4 2.80448 v -0.814937 h -2.77347 c -0.0207,0 -0.0397,-0.0062 -0.0563,-0.0186 -0.0125,-0.01659 -0.0186,-0.03508 -0.0186,-0.05581 v -0.503846 h 2.84841 v -1.355473 c 0,-0.157542 -0.0396,-0.300909 -0.11834,-0.429431 -0.0746,-0.128521 -0.17791,-0.231804 -0.31057,-0.310575 -0.12852,-0.07877 -0.27189,-0.118339 -0.42943,-0.118339 z m 4.27003,0 c -0.1534,0 -0.29624,0.03957 -0.42892,0.118339 -0.12852,0.07877 -0.23232,0.182054 -0.31109,0.310575 -0.0788,0.128522 -0.11782,0.271889 -0.11782,0.429431 v 2.74867 h 0.81442 v -2.717664 c 0,-0.02073 0.006,-0.03717 0.0186,-0.04961 0.0166,-0.01658 0.0351,-0.02532 0.0558,-0.02532 h 1.97146 v -0.814421 z m 2.47375,0 v 3.607015 h 0.81494 v -3.607015 z m 1.53582,0 v 3.607015 h 0.81442 v -2.717664 c 0,-0.02073 0.006,-0.03717 0.0186,-0.04961 0.0166,-0.01658 0.0356,-0.02532 0.0563,-0.02532 h 1.88413 c 0.0207,-10e-7 0.0371,0.0087 0.0496,0.02532 0.0166,0.01244 0.0248,0.02888 0.0248,0.04961 v 2.717664 h 0.81494 v -2.74867 c 0,-0.157542 -0.0396,-0.300909 -0.11834,-0.429431 -0.0746,-0.128521 -0.17843,-0.231804 -0.31109,-0.310575 -0.12853,-0.07877 -0.27137,-0.118339 -0.42892,-0.118339 z m 5.06274,0 c -0.15339,0 -0.29676,0.03957 -0.42943,0.118339 -0.12853,0.07877 -0.23181,0.182054 -0.31057,0.310575 -0.0788,0.128522 -0.11834,0.271889 -0.11834,0.429431 v 1.890324 c 0,0.157543 0.0396,0.300393 0.11834,0.428915 0.0788,0.128522 0.18204,0.232321 0.31057,0.311092 0.13267,0.07877 0.27604,0.118339 0.42943,0.118339 h 1.98954 v 0.52865 c 0,0.02073 -0.008,0.03717 -0.0248,0.04961 -0.0124,0.01658 -0.0289,0.02481 -0.0496,0.02481 h -2.17041 v 0.821138 h 2.20762 c 0.15754,0 0.30091,-0.03957 0.42943,-0.118339 0.13266,-0.07463 0.23595,-0.176369 0.31057,-0.304891 0.0746,-0.128522 0.11214,-0.273427 0.11214,-0.435115 v -3.314527 c 0,-0.157542 -0.0396,-0.300909 -0.11834,-0.429431 -0.0746,-0.128521 -0.17585,-0.231804 -0.30437,-0.310575 -0.12852,-0.07877 -0.27189,-0.118339 -0.42943,-0.118339 z m 9.86296,0 v 2.748669 c 0,0.157543 0.037,0.300393 0.11163,0.428915 0.0788,0.128522 0.18256,0.232321 0.31109,0.311092 0.13267,0.07877 0.27758,0.118339 0.43511,0.118339 h 1.94665 c 0.1617,0 0.3066,-0.03957 0.43512,-0.118339 0.12852,-0.07877 0.23027,-0.18257 0.30489,-0.311092 0.0788,-0.128522 0.11834,-0.271372 0.11834,-0.428915 v -2.748669 h -0.81494 v 2.717664 c 0,0.02073 -0.008,0.03923 -0.0248,0.05581 -0.0124,0.01244 -0.0289,0.0186 -0.0496,0.0186 h -1.88412 c -0.0207,0 -0.0397,-0.0062 -0.0563,-0.0186 -0.0125,-0.01659 -0.0186,-0.03508 -0.0186,-0.05581 v -2.717664 z m 6.90966,0 v 2.748669 c 0,0.157543 0.037,0.300393 0.11162,0.428915 0.0788,0.128522 0.18257,0.232321 0.3111,0.311092 0.13266,0.07877 0.27808,0.118339 0.43563,0.118339 h 1.94613 c 0.16169,0 0.30711,-0.03957 0.43563,-0.118339 0.12853,-0.07877 0.22976,-0.18257 0.30438,-0.311092 0.0788,-0.128522 0.11834,-0.271372 0.11834,-0.428915 v -2.748669 h -0.81443 v 2.717664 c 0,0.02073 -0.009,0.03923 -0.0253,0.05581 -0.0124,0.01244 -0.0289,0.0186 -0.0496,0.0186 h -1.88412 c -0.0207,0 -0.0397,-0.0062 -0.0563,-0.0186 -0.0125,-0.01659 -0.0186,-0.03508 -0.0186,-0.05581 v -2.717664 z m 5.17385,0 c -0.1534,0 -0.29625,0.03957 -0.42892,0.118339 -0.12852,0.07877 -0.23232,0.182054 -0.31109,0.310575 -0.0788,0.128522 -0.11834,0.271889 -0.11834,0.429431 v 2.74867 h 0.81494 v -2.717664 c 0,-0.02073 0.006,-0.03717 0.0186,-0.04961 0.0166,-0.01658 0.0351,-0.02532 0.0558,-0.02532 h 1.97146 v -0.814421 z m 3.283,0 c -0.15754,0 -0.3004,0.03957 -0.42891,0.118339 -0.12853,0.07877 -0.23233,0.182054 -0.3111,0.310575 -0.0788,0.128522 -0.11834,0.271889 -0.11834,0.429431 v 1.890324 c 0,0.157543 0.0396,0.300393 0.11834,0.428915 0.0788,0.128522 0.18257,0.232321 0.3111,0.311092 0.12851,0.07877 0.27137,0.118339 0.42891,0.118339 h 2.80448 v -0.814937 h -2.77347 c -0.0207,0 -0.0392,-0.0062 -0.0558,-0.0186 -0.0125,-0.01659 -0.0186,-0.03508 -0.0186,-0.05581 v -0.503846 h 2.84789 v -1.355473 c 0,-0.157542 -0.0391,-0.300909 -0.11782,-0.429431 -0.0746,-0.128521 -0.17843,-0.231804 -0.31109,-0.310575 -0.12853,-0.07877 -0.27137,-0.118339 -0.42892,-0.118339 z m 4.24212,0 c -0.15754,0 -0.30091,0.03957 -0.42943,0.118339 -0.12852,0.07877 -0.23181,0.182054 -0.31058,0.310575 -0.0788,0.128522 -0.11834,0.271889 -0.11834,0.429431 v 0.497128 c 0,0.157542 0.0396,0.300909 0.11834,0.429431 0.0788,0.128522 0.18206,0.231804 0.31058,0.310575 0.12852,0.07877 0.27189,0.118339 0.42943,0.118339 h 1.91512 c 0.0207,0 0.0371,0.0082 0.0496,0.02481 0.0166,0.01244 0.0253,0.0294 0.0253,0.05013 v 0.428915 c 0,0.02073 -0.009,0.03923 -0.0253,0.05581 -0.0125,0.01244 -0.0289,0.0186 -0.0496,0.0186 h -1.88412 c -0.0207,0 -0.0397,-0.0062 -0.0563,-0.0186 -0.0125,-0.01659 -0.0186,-0.03508 -0.0186,-0.05581 V 18.348239 H 164.786 v 0.136942 c 0,0.157543 0.0391,0.300393 0.11782,0.428915 0.0788,0.128522 0.18258,0.232321 0.3111,0.311092 0.12852,0.07877 0.27137,0.118339 0.42891,0.118339 h 1.94665 c 0.1617,0 0.3066,-0.03957 0.43512,-0.118339 0.12852,-0.07877 0.23232,-0.18257 0.31109,-0.311092 0.0788,-0.128522 0.11834,-0.271372 0.11834,-0.428915 v -0.497644 c 0,-0.157542 -0.0396,-0.300392 -0.11834,-0.428914 -0.0788,-0.128521 -0.18257,-0.232321 -0.31109,-0.311092 -0.12852,-0.07877 -0.27342,-0.117822 -0.43512,-0.117822 h -1.91513 c -0.0207,0 -0.0397,-0.0062 -0.0563,-0.0186 -0.0125,-0.01659 -0.0186,-0.0356 -0.0186,-0.05633 v -0.428915 c 0,-0.02073 0.006,-0.03717 0.0186,-0.04961 0.0166,-0.01658 0.0356,-0.02532 0.0563,-0.02532 h 1.88412 c 0.0207,-1e-6 0.0371,0.0087 0.0496,0.02532 0.0166,0.01244 0.0248,0.02888 0.0248,0.04961 v 0.10542 h 0.82114 v -0.136426 c 0,-0.157542 -0.0396,-0.300909 -0.11834,-0.429431 -0.0788,-0.128521 -0.18206,-0.231804 -0.31058,-0.310575 -0.12852,-0.07877 -0.27393,-0.118339 -0.43563,-0.118339 z m -56.98205,0.814421 h 1.88412 c 0.0207,0 0.0372,0.0087 0.0496,0.02532 0.0166,0.01244 0.0253,0.02888 0.0253,0.04961 v 1.828313 c 0,0.02073 -0.009,0.03923 -0.0253,0.05581 -0.0124,0.01244 -0.0289,0.0186 -0.0496,0.0186 h -1.88412 c -0.0207,0 -0.0397,-0.0062 -0.0563,-0.0186 -0.0124,-0.01659 -0.0186,-0.03508 -0.0186,-0.05581 v -1.828313 c 0,-0.02073 0.006,-0.03717 0.0186,-0.04961 0.0166,-0.01658 0.0356,-0.02532 0.0563,-0.02532 z m 10.03194,0 h 1.88464 c 0.0207,-10e-7 0.0371,0.0087 0.0496,0.02532 0.0166,0.01244 0.0248,0.02888 0.0248,0.04961 v 0.590662 h -2.03347 v -0.590662 c 0,-0.02073 0.006,-0.03717 0.0186,-0.04961 0.0166,-0.01658 0.0351,-0.02532 0.0558,-0.02532 z m 4.16771,0 h 1.88412 c 0.0207,-10e-7 0.0371,0.0087 0.0496,0.02532 0.0166,0.01244 0.0248,0.02888 0.0248,0.04961 v 0.590662 h -2.03347 v -0.590662 c 0,-0.02073 0.006,-0.03717 0.0186,-0.04961 0.0166,-0.01658 0.0356,-0.02532 0.0563,-0.02532 z m 13.34182,0 h 1.88412 c 0.0207,0 0.0372,0.0087 0.0496,0.02532 0.0166,0.01244 0.0248,0.02888 0.0248,0.04961 v 1.828313 c 0,0.02073 -0.008,0.03923 -0.0248,0.05581 -0.0124,0.01244 -0.0289,0.0186 -0.0496,0.0186 h -1.88412 c -0.0207,0 -0.0397,-0.0062 -0.0563,-0.0186 -0.0125,-0.01659 -0.0186,-0.03508 -0.0186,-0.05581 v -1.828313 c 0,-0.02073 0.006,-0.03717 0.0186,-0.04961 0.0166,-0.01658 0.0356,-0.02532 0.0563,-0.02532 z m 25.22947,0 h 1.88412 c 0.0207,-10e-7 0.0377,0.0087 0.0501,0.02532 0.0166,0.01244 0.0248,0.02888 0.0248,0.04961 v 0.590662 h -2.03347 v -0.590662 c 0,-0.02073 0.006,-0.03717 0.0186,-0.04961 0.0166,-0.01658 0.0351,-0.02532 0.0558,-0.02532 z"
       inkscape:export-filename="\\staff.gr.grisd.net\hs-staff$\stovri\Desktop\Tigerbotics_Title_and_Slogan.png"
       inkscape:export-xdpi="302.73001"
       inkscape:export-ydpi="302.73001" />
    <path
       id="path74314"
       style="font-size:10.5833px;line-height:1.25;fill:#ff512e;stroke:#000000;stroke-width:0.5;stroke-linecap:round;stroke-linejoin:round;stroke-miterlimit:4;stroke-dasharray:none;paint-order:markers stroke fill"
       d="M 41.804797,0.48290246 V 3.0615826 h 4.660994 V 12.38358 h 2.578683 V 3.0615826 h 4.661805 V 0.48290246 Z m 12.727952,0 V 12.38358 h 2.52864 V 0.48290246 Z m 6.396256,0 c -0.440781,0 -0.848088,0.10971898 -1.222752,0.33010457 C 59.331585,1.033399 59.033989,1.3309938 58.813599,1.7056565 58.593209,2.0693024 58.482688,2.4774194 58.482688,2.9292201 V 9.937259 c 0,0.440785 0.110516,0.848899 0.330911,1.223563 0.22039,0.374663 0.517986,0.672262 0.892654,0.892653 0.374664,0.22039 0.781971,0.330105 1.222752,0.330105 h 6.991898 c 0.451803,0 0.859917,-0.109719 1.223562,-0.330105 0.374665,-0.220391 0.672264,-0.51799 0.892654,-0.892653 0.231408,-0.374664 0.347052,-0.782778 0.347052,-1.223563 V 5.4417195 h -5.173505 v 2.5786801 h 2.57868 V 9.8048955 H 61.045228 V 3.0615826 h 6.744118 v 0.9911189 h 2.594825 V 2.9292201 c 0,-0.4518007 -0.115639,-0.8599177 -0.347052,-1.2235636 C 69.816729,1.3309938 69.51913,1.033399 69.144465,0.81300703 68.78082,0.592614 68.372706,0.48290246 67.920903,0.48290246 Z m 11.306651,0 V 12.38358 H 83.227537 V 9.8048955 H 74.830481 V 7.7225817 h 6.76026 V 5.1438974 h -6.76026 V 3.0615826 h 8.397056 V 0.48290246 Z m 12.62787,0.0161694 V 12.383605 h 2.562542 V 8.4828921 l 3.396273,-0.00818 3.281662,3.9087829 H 96.74806 V 11.50785 L 94.173414,8.4666994 h 0.128335 c 0.451803,0 0.859918,-0.1105158 1.223565,-0.3309109 0.374659,-0.2203898 0.672259,-0.5179857 0.892647,-0.8926537 0.231418,-0.3746638 0.347057,-0.7827776 0.347057,-1.2235626 v -3.074239 c 0,-0.4407818 -0.115638,-0.8480903 -0.347057,-1.222753 C 96.197573,1.3479695 95.899973,1.0503747 95.525314,0.82998379 95.161667,0.60958545 94.753552,0.49907501 94.301749,0.49907501 Z m 2.562542,2.56253724 h 6.743309 v 2.8264633 h -6.743309 z"
       inkscape:export-filename="\\staff.gr.grisd.net\hs-staff$\stovri\Desktop\Tigerbotics_Title_and_Slogan.png"
       inkscape:export-xdpi="302.73001"
       inkscape:export-ydpi="302.73001" />
    <path
       id="path74316"
       style="font-size:10.5833px;line-height:1.25;fill:#ffffff;stroke:#000000;stroke-width:0.5;stroke-linecap:round;stroke-linejoin:round;stroke-miterlimit:4;stroke-dasharray:none;paint-order:markers stroke fill"
       d="M 98.902068,0.26559351 V 12.229476 h 9.488342 c 0.4542,0 0.86367,-0.110302 1.22925,-0.331858 0.37665,-0.221562 0.67583,-0.520742 0.89739,-0.897395 0.23264,-0.376653 0.3489,-0.786935 0.3489,-1.2300609 V 7.294627 c 0,-0.276956 -0.0555,-0.5539088 -0.16634,-0.8308585 -0.11077,-0.276955 -0.24926,-0.5205747 -0.41543,-0.7310611 0.0443,-0.1107718 0.0725,-0.227036 0.0836,-0.3488937 0.0221,-0.1329436 0.0333,-0.2714126 0.0333,-0.4154293 V 2.7249051 c 0,-0.4542028 -0.11625,-0.864487 -0.3489,-1.2300632 -0.22156,-0.3766536 -0.52073,-0.6758282 -0.89739,-0.8973909 -0.36558,-0.22156377 -0.7699,-0.33185749 -1.21302,-0.33185749 z m 16.201742,0 c -0.44313,0 -0.85341,0.11030222 -1.23006,0.33185749 -0.37665,0.2215627 -0.67583,0.5207373 -0.89739,0.8973909 -0.22157,0.3655762 -0.33186,0.7758604 -0.33186,1.2300632 v 7.045257 c 0,0.4431259 0.11029,0.8534079 0.33186,1.2300609 0.22156,0.376653 0.52074,0.675833 0.89739,0.897395 0.37665,0.22156 0.78693,0.331858 1.23006,0.331858 h 7.04526 c 0.44313,0 0.84745,-0.110302 1.21302,-0.331858 0.37666,-0.221562 0.67583,-0.520742 0.89739,-0.897395 0.23265,-0.376653 0.3489,-0.786935 0.3489,-1.2300609 v -7.045257 c 0,-0.4542028 -0.11625,-0.864487 -0.3489,-1.2300632 -0.22156,-0.3766536 -0.52073,-0.6758282 -0.89739,-0.8973909 -0.36557,-0.22156377 -0.76989,-0.33185749 -1.21302,-0.33185749 z m 10.73463,0 V 2.8579687 h 4.68575 v 9.3715073 h 2.59238 V 2.8579687 h 4.68574 V 0.26559351 Z m 12.79475,0 V 12.229476 h 2.54288 V 0.26559351 Z m 6.43103,0 c -0.4542,0 -0.86964,0.11030222 -1.24629,0.33185749 -0.36557,0.2215627 -0.6596,0.5207373 -0.88116,0.8973909 -0.22157,0.3655762 -0.33186,0.7758604 -0.33186,1.2300632 v 7.045257 c 0,0.4542019 0.11029,0.8696339 0.33186,1.2462879 0.22156,0.365577 0.51559,0.659606 0.88116,0.881168 0.37665,0.22156 0.79209,0.331858 1.24629,0.331858 h 9.4713 V 9.6370953 h -8.80677 c -0.17726,0 -0.31573,-0.043632 -0.41543,-0.1322519 -0.0886,-0.099704 -0.13307,-0.2381793 -0.13307,-0.4154304 V 3.4056574 c 0,-0.1883221 0.0445,-0.3268006 0.13307,-0.4154293 0.0996,-0.088634 0.23817,-0.1322509 0.41543,-0.1322509 h 8.80677 V 0.26560201 Z m 13.6256,0 c -0.44313,0 -0.85259,0.11030222 -1.22926,0.33185749 -0.37665,0.2215627 -0.67584,0.5207373 -0.89738,0.8973909 -0.22157,0.3655762 -0.33268,0.7758604 -0.33268,1.2300632 v 2.3595088 c 0,0.4542017 0.11111,0.8696299 0.33268,1.2462878 0.22154,0.3655741 0.52073,0.658793 0.89738,0.8803525 0.37667,0.2215606 0.78613,0.332667 1.22926,0.332667 h 6.89596 v 2.0933741 h -6.77912 v -0.980152 h -2.57616 v 1.1132188 c 0,0.4431259 0.11111,0.8534079 0.33268,1.2300609 0.22154,0.376653 0.52073,0.675833 0.89738,0.897395 0.37667,0.22156 0.78613,0.331858 1.22926,0.331858 h 7.04607 c 0.44311,0 0.84744,-0.110302 1.21303,-0.331858 0.37664,-0.221562 0.67581,-0.520742 0.89739,-0.897395 0.23264,-0.376653 0.34889,-0.786935 0.34889,-1.2300609 V 7.4106555 c 0,-0.4542018 -0.11618,-0.8636743 -0.34889,-1.2292505 -0.22158,-0.3766536 -0.52075,-0.6758303 -0.89739,-0.8973898 -0.36559,-0.221567 -0.76992,-0.3326734 -1.21303,-0.3326734 h -6.92923 V 2.8579687 h 6.77912 V 3.838125 h 2.60942 V 2.7249051 c 0,-0.4542028 -0.11618,-0.864487 -0.34889,-1.2300632 C 167.62473,1.1181883 167.32556,0.8190137 166.94892,0.597451 166.58333,0.37588723 166.179,0.26559351 165.73589,0.26559351 Z M 101.4774,2.8579687 h 6.3142 v 1.9935756 h -6.3142 z m 13.74244,0 h 6.77994 v 6.7791266 h -6.77994 z M 101.4774,7.4439195 h 6.77994 v 2.1931758 h -6.77994 z"
       inkscape:export-filename="\\staff.gr.grisd.net\hs-staff$\stovri\Desktop\Tigerbotics_Title_and_Slogan.png"
       inkscape:export-xdpi="302.73001"
       inkscape:export-ydpi="302.73001" />
  </g>
</svg>
